<svg width="19" height="17" viewBox="0 0 19 17" fill="none" xmlns="http://www.w3.org/2000/svg">
<path d="M4.6546 1.99923C6.58758 3.45045 8.66656 6.39285 9.43 7.97176C10.1934 6.39285 12.2724 3.45045 14.2054 1.99923C15.6001 0.952137 17.86 0.142 17.86 2.72C17.86 3.23489 17.5648 7.04525 17.3917 7.66393C16.7899 9.8145 14.5969 10.363 12.646 10.031C16.0559 10.6114 16.9233 12.5337 15.05 14.4559C11.4922 18.1067 9.93639 13.54 9.53781 12.3698C9.46471 12.1553 9.43046 12.055 9.43 12.1403C9.42947 12.0549 9.39529 12.1553 9.32219 12.3698C8.92361 13.54 7.36781 18.1068 3.81002 14.4559C1.93665 12.5337 2.80409 10.6114 6.21389 10.031C4.26313 10.363 2.07015 9.8145 1.46833 7.66393C1.29518 7.04525 1 3.23489 1 2.72C1 0.142 3.2599 0.952137 4.6546 1.99923Z" fill="#1185FE"/>
</svg>
