<svg width="24" height="25" viewBox="0 0 24 25" fill="none"
    xmlns="http://www.w3.org/2000/svg">
    <path fill-rule="evenodd" clip-rule="evenodd" d="M11.9642 0.745117C5.34833 0.745117 0 6.13287 0 12.7983C0 18.1263 3.42686 22.6363 8.18082 24.2325C8.77518 24.3525 8.9929 23.9732 8.9929 23.6541C8.9929 23.3747 8.97331 22.4169 8.97331 21.4189C5.64514 22.1374 4.95208 19.9821 4.95208 19.9821C4.41722 18.5852 3.62473 18.2262 3.62473 18.2262C2.53543 17.4878 3.70408 17.4878 3.70408 17.4878C4.91241 17.5676 5.54645 18.725 5.54645 18.725C6.61592 20.5608 8.33926 20.0421 9.03257 19.7227C9.13151 18.9445 9.44865 18.4057 9.78539 18.1064C7.13094 17.827 4.33812 16.7894 4.33812 12.1596C4.33812 10.8425 4.81322 9.76495 5.56604 8.92691C5.44727 8.62765 5.03118 7.39018 5.68506 5.73393C5.68506 5.73393 6.69527 5.41459 8.97306 6.97116C9.94827 6.70732 10.954 6.5731 11.9642 6.57197C12.9744 6.57197 14.0042 6.71181 14.9552 6.97116C17.2332 5.41459 18.2434 5.73393 18.2434 5.73393C18.8973 7.39018 18.481 8.62765 18.3622 8.92691C19.1349 9.76495 19.5904 10.8425 19.5904 12.1596C19.5904 16.7894 16.7976 17.8069 14.1233 18.1064C14.5592 18.4855 14.9353 19.2038 14.9353 20.3414C14.9353 21.9577 14.9158 23.2549 14.9158 23.6539C14.9158 23.9732 15.1337 24.3525 15.7278 24.2328C20.4818 22.6361 23.9087 18.1263 23.9087 12.7983C23.9282 6.13287 18.5603 0.745117 11.9642 0.745117Z" fill="#FFFFFF"/>
</svg>
